<svg width="80" height="80" viewBox="0 0 80 80" fill="none" xmlns="http://www.w3.org/2000/svg">
<rect x="0.5" y="0.5" width="79" height="79" rx="39.5" fill="#FF6881" fill-opacity="0.15"/>
<rect x="0.5" y="0.5" width="79" height="79" rx="39.5" stroke="#FF6881" stroke-dasharray="3 2"/>
<path d="M54.5037 50.8036C54.7154 49.6796 54.71 48.5255 54.4877 47.4036L57.541 40.035C57.5413 40.0301 57.5413 40.0252 57.541 40.0203C58.0358 38.6657 58.7609 37.4068 59.6843 36.299C59.9141 36.0563 60.0065 35.7144 59.9303 35.389L58.6783 29.9824C58.6634 29.9259 58.641 29.8716 58.6117 29.8211C58.6063 29.8111 58.6043 29.7991 58.599 29.7897C58.5937 29.7804 58.5703 29.7577 58.557 29.7404C58.5297 29.7005 58.4982 29.6636 58.463 29.6304C58.4398 29.6141 58.4155 29.5994 58.3903 29.5864C58.3578 29.5625 58.3233 29.5415 58.287 29.5237C58.2368 29.5048 58.1844 29.492 58.131 29.4857C58.1157 29.4857 58.1023 29.4757 58.087 29.4744C57.9592 29.4659 57.8317 29.4944 57.7197 29.5564C57.7097 29.5617 57.6977 29.5637 57.6877 29.5697H57.681L52.9737 32.5077C52.6886 32.6842 52.5117 32.9925 52.503 33.3277C52.3723 34.7671 51.9931 36.173 51.3824 37.483V37.4903L49.8564 41.179C49.1074 40.7808 48.3056 40.4913 47.4751 40.319C47.7895 38.149 47.9051 35.9548 47.8204 33.7637C49.0614 32.2747 49.657 30.3522 49.4751 28.4224C49.0584 24.5371 45.5471 21.7311 45.3971 21.6131C45.1716 21.4356 44.8579 21.4222 44.6182 21.58C44.3785 21.7377 44.2666 22.0312 44.3404 22.3085C44.6838 23.5978 44.3864 24.9584 41.8504 27.7564C40.711 28.8566 40.3499 30.5365 40.9364 32.0077C41.1607 32.5704 41.482 33.0894 41.8858 33.541C41.7244 34.571 41.5978 35.5464 41.5104 36.4964C41.3601 38.0676 41.3213 39.6476 41.3944 41.2243C40.7997 41.5468 40.2429 41.9347 39.7345 42.381L36.5011 28.5544C36.5011 28.5404 36.4878 28.5304 36.4838 28.5177C36.473 28.4733 36.4573 28.4302 36.4371 28.3891L33.1345 22.2898C32.804 21.6793 32.1057 21.3656 31.4298 21.5239C30.7539 21.6822 30.2676 22.2734 30.2425 22.9671L29.9918 29.8971C29.992 29.9471 29.9976 29.9969 30.0085 30.0457C30.0085 30.0564 30.0085 30.0657 30.0085 30.0757L33.3072 44.1536C32.7868 44.1766 32.2702 44.2537 31.7658 44.3836L28.1372 35.6204C27.8462 34.9505 27.0745 34.6344 26.3972 34.9077L20.8512 37.2037C20.1725 37.487 19.8499 38.2653 20.1292 38.9457L25.0505 50.8176C22.1662 50.969 19.9274 53.3903 20.0018 56.2776C20.0763 59.1649 22.4369 61.4676 25.3252 61.4702H54.6584C56.5638 61.4426 58.3097 60.4005 59.2385 58.7366C60.1672 57.0726 60.1378 55.0396 59.1611 53.4033C58.1845 51.767 56.4091 50.776 54.5037 50.8036ZM53.8244 33.5477L56.619 31.8037L55.6297 34.193C55.4887 34.5332 55.6502 34.9233 55.9904 35.0644C56.3306 35.2054 56.7207 35.0439 56.8617 34.7037L57.851 32.3144L58.5917 35.523C57.7992 36.4898 57.1483 37.5643 56.6584 38.7143C55.9633 39.0365 55.1652 39.0532 54.4572 38.7604C53.7493 38.4676 53.1961 37.892 52.9317 37.173C53.3999 36.0131 53.7005 34.7924 53.8244 33.5477ZM52.291 38.7817C52.7321 39.3209 53.3044 39.7376 53.953 39.9917C54.4686 40.2134 55.0231 40.3304 55.5844 40.3357C55.7194 40.3352 55.8543 40.3269 55.9884 40.311L53.861 45.4443C53.224 44.0398 52.2386 42.8215 50.9984 41.905L52.291 38.7817ZM43.1578 34.0204L46.5071 34.225C46.5277 34.8477 46.5204 35.4917 46.4997 36.1457C45.384 36.2254 44.2627 36.1712 43.1598 35.9844C43.0758 35.9724 42.9938 35.963 42.9104 35.9517C42.9771 35.3237 43.0584 34.6877 43.1564 34.0204H43.1578ZM42.8398 28.6517C44.6098 26.6991 45.5271 25.1971 45.7404 23.7851C47.0127 25.0941 47.8525 26.7621 48.1464 28.5637C48.2864 30.1321 47.8015 31.6923 46.7971 32.905C45.4802 32.825 44.1778 32.745 42.8898 32.665C42.3363 32.1477 42.018 31.4269 42.0083 30.6693C41.9986 29.9118 42.2984 29.1831 42.8384 28.6517H42.8398ZM42.7891 37.2803L42.9824 37.3057C43.8415 37.4385 44.7086 37.5123 45.5778 37.5263C45.8538 37.5263 46.1444 37.5043 46.4357 37.4817C46.3751 38.3397 46.2757 39.2357 46.1497 40.1617C45.9851 40.153 45.8238 40.137 45.6584 40.137C44.6519 40.1388 43.6529 40.3108 42.7038 40.6457C42.673 39.5232 42.7011 38.3999 42.7878 37.2803H42.7891ZM37.6325 45.0763L35.7251 36.9517C35.636 36.5992 35.2808 36.3832 34.9268 36.4661C34.5728 36.549 34.3505 36.9003 34.4272 37.2557L36.1411 44.5683C35.6699 44.3998 35.1831 44.2785 34.6878 44.2063L31.7618 31.7197C32.1717 31.9063 32.6168 32.0032 33.0672 32.0037C33.1092 32.0037 33.1538 31.9977 33.1965 31.9957L33.6678 34.0084C33.7186 34.2439 33.8926 34.4338 34.1229 34.5049C34.3531 34.576 34.6038 34.5172 34.7786 34.3513C34.9533 34.1853 35.0249 33.938 34.9658 33.7044L34.4938 31.6904C34.9461 31.4901 35.3451 31.1864 35.6585 30.8037L38.6331 43.523C38.2468 44.0048 37.9115 44.5254 37.6325 45.0763ZM33.5592 30.6097C32.7066 30.7751 31.836 30.4265 31.3332 29.7184L31.4178 27.3704C31.6498 27.4137 31.8852 27.4361 32.1212 27.4371C32.3491 27.438 32.5764 27.4128 32.7985 27.3618C33.2482 27.2436 33.6689 27.0344 34.0345 26.7471L35.1572 28.8191C35.0234 29.6788 34.398 30.3801 33.5592 30.6111V30.6097ZM31.7332 22.8218C31.824 22.8007 31.9177 22.8427 31.9625 22.9244L33.3918 25.5678C33.134 25.801 32.8261 25.9721 32.4918 26.0678C32.1502 26.1305 31.7987 26.1138 31.4645 26.0191L31.5732 23.0151C31.5768 22.922 31.6423 22.8428 31.7332 22.8218ZM26.9085 36.137L27.4179 37.3677L24.9512 38.389C24.6588 38.5118 24.4934 38.8236 24.5557 39.1346C24.6179 39.4456 24.8907 39.6696 25.2079 39.6703C25.2955 39.6701 25.3822 39.6529 25.4632 39.6197L27.9299 38.5977L28.4399 39.8297L27.2059 40.341C26.9118 40.4627 26.7447 40.7753 26.807 41.0875C26.8693 41.3996 27.1436 41.6242 27.4619 41.6237C27.5492 41.6233 27.6357 41.6061 27.7165 41.573L28.9505 41.0617L29.4605 42.2937L26.9919 43.317C26.6978 43.4387 26.5307 43.7513 26.593 44.0635C26.6553 44.3756 26.9296 44.6001 27.2479 44.5996C27.3352 44.5994 27.4217 44.5822 27.5025 44.549L29.9692 43.5276L30.5085 44.8296C28.3361 45.8212 26.7431 47.7601 26.1919 50.0836L21.3599 38.433L26.9085 36.137ZM54.6584 60.1369H25.3252C23.1161 60.1369 21.3252 58.346 21.3252 56.1369C21.3252 53.9278 23.1161 52.1369 25.3252 52.1369C25.7115 52.1356 26.0958 52.1913 26.4659 52.3023C26.6658 52.3626 26.8824 52.3259 27.0512 52.2029C27.22 52.08 27.3214 51.885 27.3252 51.6763C27.3726 49.3003 28.7461 47.1509 30.8823 46.1096C33.0184 45.0684 35.5577 45.3106 37.4585 46.737C37.6264 46.862 37.8434 46.9008 38.0443 46.8418C38.2452 46.7829 38.4067 46.6329 38.4805 46.437C39.7829 42.9658 43.3827 40.924 47.0303 41.5874C50.678 42.2509 53.3283 45.4294 53.325 49.1369C53.3263 49.8994 53.2128 50.6576 52.9884 51.3863C52.9183 51.613 52.974 51.8598 53.1346 52.0344C53.2953 52.2091 53.5366 52.2852 53.7684 52.2343C54.0607 52.1699 54.3591 52.1373 54.6584 52.1369C56.8675 52.1369 58.6583 53.9278 58.6583 56.1369C58.6583 58.346 56.8675 60.1369 54.6584 60.1369Z" fill="#FF6881"/>
<path d="M45.7828 31.9364C45.992 31.9372 46.1895 31.8397 46.3161 31.673C47.1484 30.5466 47.4701 29.1226 47.2028 27.7477C47.1459 27.5127 46.9662 27.3268 46.7331 27.2621C46.5001 27.1974 46.2503 27.264 46.0804 27.4361C45.9105 27.6082 45.8471 27.8589 45.9148 28.0911C46.0744 29.068 45.8362 30.0682 45.2535 30.8684C45.1019 31.0704 45.0776 31.3407 45.1905 31.5665C45.3034 31.7924 45.5343 31.935 45.7868 31.935L45.7828 31.9364Z" fill="#FF6881"/>
<path d="M44.9052 52.1364C44.4094 52.138 43.9205 52.2519 43.4752 52.4698C42.2759 50.8287 40.0366 50.348 38.2695 51.3522C36.5023 52.3564 35.7692 54.5262 36.5652 56.3964C36.67 56.6422 36.9114 56.8018 37.1786 56.8017C37.2684 56.802 37.3573 56.7838 37.4399 56.7484C37.6026 56.6791 37.731 56.548 37.7971 56.384C37.8631 56.22 37.8612 56.0364 37.7919 55.8737C37.6468 55.5355 37.5719 55.1712 37.5719 54.8031C37.5719 53.3303 38.7658 52.1364 40.2385 52.1364C41.2729 52.1313 42.215 52.7307 42.6485 53.6698C42.663 53.6915 42.6785 53.7124 42.6952 53.7324C42.7057 53.7553 42.7175 53.7775 42.7305 53.7991C42.7425 53.8138 42.7599 53.8204 42.7732 53.8344C42.8045 53.8669 42.8391 53.8959 42.8765 53.9211C42.9098 53.9467 42.9456 53.9691 42.9832 53.9878C43.0219 54.004 43.0621 54.0165 43.1032 54.0251C43.1442 54.0359 43.1862 54.0423 43.2285 54.0444C43.3151 54.0437 43.4011 54.0293 43.4832 54.0018C43.501 53.9985 43.5185 53.9943 43.5359 53.9891C43.5575 53.9751 43.5782 53.9597 43.5979 53.9431C43.6219 53.9324 43.6452 53.9204 43.6679 53.9071C44.018 53.6239 44.4548 53.4695 44.9052 53.4698C45.6847 53.471 46.3924 53.9251 46.7185 54.6331C46.8713 54.9681 47.2668 55.1159 47.6018 54.9631C47.9369 54.8103 48.0846 54.4148 47.9318 54.0798C47.389 52.8965 46.207 52.1376 44.9052 52.1364Z" fill="#FF6881"/>
<path d="M31.7812 47.5039C31.6805 47.5366 29.3252 48.3512 29.3252 50.8032C29.3252 51.1714 29.6237 51.4699 29.9919 51.4699C30.36 51.4699 30.6585 51.1714 30.6585 50.8032C30.7129 49.8732 31.3248 49.0687 32.2065 48.7679C32.5563 48.6504 32.7446 48.2717 32.6272 47.9219C32.5097 47.5721 32.131 47.3838 31.7812 47.5012V47.5039Z" fill="#FF6881"/>
<path d="M41.162 46.7842C41.215 46.7976 41.2694 46.8043 41.324 46.8042C41.6296 46.8038 41.8958 46.5959 41.97 46.2995C42.2769 45.0546 43.3789 44.1691 44.6607 44.1375C45.0289 44.1366 45.3266 43.8374 45.3257 43.4692C45.3247 43.101 45.0255 42.8033 44.6573 42.8042C42.7625 42.8293 41.125 44.1341 40.6774 45.9755C40.5879 46.3326 40.8049 46.6947 41.162 46.7842Z" fill="#FF6881"/>
</svg>
