<svg width="80" height="80" viewBox="0 0 80 80" fill="none" xmlns="http://www.w3.org/2000/svg">
<rect x="0.5" y="0.5" width="79" height="79" rx="39.5" fill="#1B75E8" fill-opacity="0.1"/>
<rect x="0.5" y="0.5" width="79" height="79" rx="39.5" stroke="#1B75E8" stroke-dasharray="3 2"/>
<path d="M55.9999 43.4702V42.1368C56.3679 42.1368 56.6666 41.8384 56.6666 41.4702V37.4702C56.6666 37.1019 56.3679 36.8035 55.9999 36.8035H52.3999L52.2708 36.3027C51.976 35.1574 51.5182 34.0603 50.9106 33.0454L50.644 32.5993L53.1999 30.0389C53.4572 29.7811 53.4572 29.3634 53.1999 29.1056L50.3687 26.2702C50.1072 26.021 49.6966 26.021 49.4351 26.2702L46.8744 28.8309L46.4286 28.5642C45.4122 27.9564 44.314 27.4986 43.1671 27.2035L42.6666 27.0733V23.4702C42.6666 23.102 42.3682 22.8035 42 22.8035H38C37.6317 22.8035 37.3333 23.102 37.3333 23.4702V27.0702L36.8325 27.1996C35.6872 27.4942 34.5901 27.952 33.5747 28.5587L33.1286 28.8257L30.5687 26.2702C30.307 26.0189 29.8937 26.0189 29.632 26.2702L26.8 29.1014C26.6755 29.2257 26.6055 29.3944 26.6055 29.5702C26.6055 29.7462 26.6755 29.9147 26.8 30.0389L29.3607 32.5993L29.094 33.0454C28.4867 34.0603 28.0286 35.1574 27.7341 36.3027L27.6034 36.8035H24C23.6318 36.8035 23.3333 37.1019 23.3333 37.4702V41.4702C23.3333 41.8384 23.6318 42.1368 24 42.1368V43.4702C22.8956 43.4702 22 42.5746 22 41.4702V37.4702C22 36.3657 22.8956 35.4702 24 35.4702H26.5794C26.8544 34.5483 27.2263 33.6582 27.6888 32.815L25.8555 30.9817C25.4805 30.6074 25.2698 30.0996 25.2698 29.5702C25.2698 29.0408 25.4805 28.533 25.8555 28.159L28.6888 25.3257C29.4781 24.5702 30.7226 24.5702 31.512 25.3257L33.3448 27.1582C34.188 26.696 35.0784 26.3249 36 26.0502V23.4702C36 22.3658 36.8955 21.4702 38 21.4702H42C43.1044 21.4702 44 22.3658 44 23.4702V26.0502C44.9218 26.3249 45.8117 26.6968 46.6552 27.159L48.4885 25.3257C49.2781 24.5702 50.5223 24.5702 51.3119 25.3257L54.1447 28.1582C54.5195 28.5324 54.7299 29.0397 54.7299 29.5694C54.7299 30.0991 54.5195 30.6069 54.1447 30.9809L52.3114 32.8142C52.7736 33.6579 53.1452 34.5483 53.4205 35.4702H55.9999C57.1044 35.4702 57.9999 36.3657 57.9999 37.4702V41.4702C57.9999 42.5746 57.1044 43.4702 55.9999 43.4702Z" fill="#1B75E8"/>
<path d="M49.3336 39.4695H48.0003C48.0003 35.0513 44.4185 31.4696 40.0003 31.4696C35.5821 31.4696 32.0003 35.0513 32.0003 39.4695H30.667C30.667 34.3149 34.8456 30.1362 40.0003 30.1362C45.1547 30.1362 49.3336 34.3149 49.3336 39.4695Z" fill="#1B75E8"/>
<path d="M40 44.8042C37.7909 44.8042 36 43.013 36 40.8042C36 38.5951 37.7909 36.8042 40 36.8042C42.2094 36.8042 44 38.5951 44 40.8042C43.9976 43.0125 42.2083 44.8018 40 44.8042ZM40 38.1375C38.5273 38.1375 37.3333 39.3315 37.3333 40.8042C37.3333 42.2768 38.5273 43.4708 40 43.4708C41.4726 43.4708 42.6667 42.2768 42.6667 40.8042C42.6667 39.3315 41.4726 38.1375 40 38.1375Z" fill="#1B75E8"/>
<path d="M51.333 47.4702C49.1239 47.4702 47.333 45.679 47.333 43.4702C47.333 41.2611 49.1239 39.4702 51.333 39.4702C53.5421 39.4702 55.333 41.2611 55.333 43.4702C55.3306 45.6785 53.5413 47.4678 51.333 47.4702ZM51.333 40.8035C49.8603 40.8035 48.6663 41.9975 48.6663 43.4702C48.6663 44.9428 49.8603 46.1369 51.333 46.1369C52.8057 46.1369 53.9997 44.9428 53.9997 43.4702C53.9997 41.9975 52.8057 40.8035 51.333 40.8035Z" fill="#1B75E8"/>
<path d="M28.667 47.4702C26.4579 47.4702 24.667 45.679 24.667 43.4702C24.667 41.2611 26.4579 39.4702 28.667 39.4702C30.8764 39.4702 32.667 41.2611 32.667 43.4702C32.6646 45.6785 30.8753 47.4678 28.667 47.4702ZM28.667 40.8035C27.1943 40.8035 26.0003 41.9975 26.0003 43.4702C26.0003 44.9428 27.1943 46.1369 28.667 46.1369C30.1396 46.1369 31.3336 44.9428 31.3336 43.4702C31.3336 41.9975 30.1396 40.8035 28.667 40.8035Z" fill="#1B75E8"/>
<path d="M57.377 49.1807C56.3835 48.4979 55.2057 48.1336 53.9999 48.137H48.6666C48.3424 48.1399 48.0187 48.1693 47.6992 48.2248C47.2726 47.5576 46.7177 46.9821 46.0666 46.5308C45.969 46.4571 45.8664 46.3901 45.7593 46.331C44.8268 45.7662 43.7567 45.4688 42.6666 45.4703H37.3333C35.2945 45.463 33.3948 46.5034 32.3026 48.2248C31.9823 48.1693 31.658 48.1399 31.3333 48.137H26C24.7953 48.1336 23.6177 48.4974 22.6247 49.1794C20.9836 50.2961 20.001 52.1521 20 54.137V56.8036C20.0023 58.624 21.0615 60.2771 22.7148 61.0396C23.3252 61.3271 23.9922 61.4742 24.6667 61.4703H31.3333V60.137H25.3333V52.8037H24V60.07C23.749 60.0198 23.5052 59.9385 23.274 59.8289C22.093 59.2844 21.3359 58.1039 21.3333 56.8036V54.137C21.3349 52.5922 22.1003 51.1482 23.3773 50.2794C24.149 49.7498 25.0638 49.4677 26 49.4703H31.3333C31.4508 49.4703 31.564 49.4828 31.6786 49.4906C31.4531 50.1266 31.3362 50.7958 31.3333 51.4703V58.137C31.3357 59.9771 32.8268 61.468 34.6666 61.4703H36.6666V50.8037H35.3333V60.137H34.6666C33.5622 60.137 32.6666 59.2414 32.6666 58.137V51.4703C32.6666 48.8927 34.7562 46.8037 37.3333 46.8037H42.6666C43.5244 46.8042 44.3651 47.0417 45.0966 47.4896C45.1643 47.5266 45.2294 47.5683 45.2911 47.6141C45.9158 48.0419 46.4286 48.6136 46.7859 49.2807C47.145 49.9547 47.3333 50.7065 47.3333 51.4703V58.137C47.3333 59.2414 46.4377 60.137 45.3333 60.137H44.6666V50.8037H43.3333V61.4703H45.3333C47.1734 61.468 48.6643 59.9771 48.6666 58.137V51.4703C48.6635 50.7958 48.5471 50.1268 48.3218 49.4906C48.4367 49.4828 48.5499 49.4703 48.6666 49.4703H53.9999C54.9366 49.4677 55.8523 49.7505 56.6244 50.2807C57.9004 51.15 58.6648 52.593 58.6666 54.137V56.8036C58.6642 58.1086 57.9015 59.2924 56.7148 59.8341C56.4869 59.9419 56.2468 60.0211 55.9999 60.07V52.8037H54.6666V60.137H48.6666V61.4703H55.3333C56.0038 61.4745 56.6669 61.3292 57.2739 61.0448C58.9327 60.2846 59.9973 58.6284 59.9999 56.8036V54.137C59.9989 52.1529 59.0171 50.2977 57.377 49.1807Z" fill="#1B75E8"/>
<path d="M37.333 60.1362H42.6663V61.4695H37.333V60.1362Z" fill="#1B75E8"/>
</svg>
