<svg width="80" height="80" viewBox="0 0 80 80" fill="none" xmlns="http://www.w3.org/2000/svg">
<rect x="0.5" y="0.5" width="79" height="79" rx="39.5" fill="#FFDAF0"/>
<rect x="0.5" y="0.5" width="79" height="79" rx="39.5" stroke="#BB0064" stroke-dasharray="3 2"/>
<path d="M30.7003 46.6447C31.0738 46.4293 31.2017 45.9511 30.9863 45.5775C30.7705 45.2043 30.2926 45.0761 29.9191 45.2916C29.5455 45.5073 29.4173 45.9855 29.6331 46.3588C29.8486 46.7323 30.3268 46.8605 30.7003 46.6447Z" fill="#BB0064"/>
<path d="M27.4988 52.037L31.4331 58.8519C32.2821 60.324 34.1919 60.8691 35.7022 59.996C37.1966 59.1323 37.7103 57.2228 36.8457 55.7272L34.5019 51.6671L36.5317 50.4952C36.9052 50.2792 37.0334 49.8016 36.8176 49.428L35.8017 47.6684C35.9228 47.6449 36.7194 47.4886 50.7657 44.7332C52.5021 44.6389 53.5425 42.7398 52.6654 41.2215L50.069 36.7245L51.7282 34.2113C51.8912 33.9642 51.9009 33.6465 51.7529 33.3901L50.1904 30.6838C50.0424 30.4275 49.7613 30.2773 49.4668 30.2947L46.4612 30.4751L43.5788 25.4824C43.1613 24.7592 42.4133 24.3212 41.5784 24.3109C41.5683 24.3105 41.5585 24.3105 41.5485 24.3105C40.7416 24.3105 40.0091 24.7122 39.5752 25.3912L29.3695 38.3923L22.7347 42.2228C20.1251 43.7289 19.2212 47.0766 20.733 49.6932C22.1142 52.0858 25.0262 53.027 27.4988 52.037ZM35.4928 56.5087C35.9244 57.2552 35.6689 58.2104 34.9203 58.6428C34.1693 59.0771 33.2129 58.8103 32.7862 58.0709L28.88 51.3042L31.5863 49.7417C36.1072 57.5732 35.4202 56.3833 35.4928 56.5087ZM33.7207 50.3136L32.9394 48.9605L34.2926 48.1792L35.0738 49.5324L33.7207 50.3136ZM49.0787 31.8832L50.1584 33.7533L49.1955 35.2114L47.3346 31.9878L49.0787 31.8832ZM40.8819 26.2478C41.0916 25.9048 41.4242 25.8694 41.5591 25.873C41.6925 25.8746 42.0248 25.9161 42.2253 26.2634L51.3122 42.0028C51.6083 42.5152 51.2485 43.1594 50.6549 43.1741C50.5484 43.1765 50.4993 43.1957 50.2264 43.2467L40.6143 26.5978C40.816 26.3384 40.842 26.3134 40.8819 26.2478ZM39.5746 27.9223L48.6056 43.5647L34.9759 46.238L30.8316 39.06L39.5746 27.9223ZM22.0862 48.912C21.7431 48.3184 21.5619 47.6446 21.5619 46.9628C21.5619 45.5694 22.3108 44.2718 23.5159 43.576L29.6051 40.0603L33.5113 46.8261L27.4222 50.342C25.5566 51.4187 23.1631 50.7772 22.0862 48.912Z" fill="#BB0064"/>
<path d="M28.2799 47.1402C28.0642 46.7667 27.5863 46.6385 27.2127 46.8543L25.8596 47.6355C25.4867 47.851 25.0079 47.7225 24.7924 47.3496C24.5766 46.976 24.0987 46.8479 23.7252 47.0636C23.3517 47.2794 23.2235 47.7573 23.4392 48.1308C24.0823 49.2447 25.5166 49.6375 26.6408 48.9887L27.994 48.2074C28.3675 47.9917 28.4957 47.5141 28.2799 47.1402Z" fill="#BB0064"/>
<path d="M58.8388 25.9817L54.4855 28.4041C54.1086 28.6141 53.9728 29.0899 54.1828 29.4668C54.3921 29.8433 54.8676 29.9798 55.2454 29.7695L59.5984 27.347C59.9756 27.137 60.1111 26.6613 59.9011 26.2844C59.6915 25.9072 59.2157 25.7717 58.8388 25.9817Z" fill="#BB0064"/>
<path d="M58.3822 34.0728L55.3637 33.2641C54.9469 33.1524 54.5184 33.3996 54.4067 33.8165C54.295 34.2334 54.5425 34.6615 54.9594 34.7732L57.9782 35.5819C58.3975 35.6945 58.8238 35.4434 58.9349 35.0296C59.0466 34.6127 58.7991 34.1842 58.3822 34.0728Z" fill="#BB0064"/>
<path d="M50.7969 23.1432L49.9873 26.162C49.8756 26.5788 50.1228 27.007 50.5396 27.119C50.9562 27.2304 51.3847 26.9838 51.4967 26.5666L52.306 23.5478C52.4177 23.131 52.1705 22.7025 51.7536 22.5908C51.3371 22.4791 50.9086 22.7263 50.7969 23.1432Z" fill="#BB0064"/>
</svg>
