<svg width="80" height="80" viewBox="0 0 80 80" fill="none" xmlns="http://www.w3.org/2000/svg">
<rect x="0.5" y="0.5" width="79" height="79" rx="39.5" fill="#DFD4F4"/>
<rect x="0.5" y="0.5" width="79" height="79" rx="39.5" stroke="#4500D0" stroke-dasharray="3 2"/>
<path d="M59.6505 50.5739L55.5517 48.5245L52.9432 41.739C52.9124 41.6588 52.8655 41.5858 52.8053 41.5245C52.7451 41.4632 52.6729 41.415 52.5933 41.3829L36.4075 34.9129C36.2943 34.8679 36.1705 34.8569 36.0511 34.8813C35.9318 34.9057 35.8222 34.9645 35.7358 35.0504L33.5771 37.2091C33.4923 37.2956 33.4345 37.4048 33.4107 37.5235C33.3868 37.6422 33.398 37.7652 33.4428 37.8777L39.9127 54.0634C39.9448 54.1431 39.993 54.2153 40.0543 54.2755C40.1156 54.3357 40.1886 54.3826 40.2688 54.4133L47.0543 57.0219L49.1037 61.1207C49.1468 61.2111 49.2111 61.2898 49.291 61.3501C49.3709 61.4105 49.4642 61.4507 49.5629 61.4675C49.5962 61.4706 49.6296 61.4706 49.6629 61.4675C49.8283 61.4668 49.9867 61.4005 50.1034 61.2832L59.813 51.5736C59.8844 51.5046 59.9384 51.4196 59.9705 51.3256C60.0025 51.2316 60.0117 51.1314 59.9973 51.0331C59.9805 50.9344 59.9403 50.8411 59.8799 50.7612C59.8196 50.6813 59.7409 50.617 59.6505 50.5739ZM34.7517 37.7965L35.0985 37.4528L43.1555 45.5098C42.6245 46.2622 42.3952 47.1864 42.5128 48.0998C42.6305 49.0131 43.0866 49.8491 43.791 50.4423C44.4953 51.0355 45.3967 51.3429 46.3167 51.3036C47.2368 51.2642 48.1086 50.8811 48.7598 50.2299C49.4109 49.5788 49.7941 48.707 49.8334 47.7869C49.8727 46.8669 49.5654 45.9655 48.9721 45.2612C48.3789 44.5568 47.5429 44.1007 46.6296 43.983C45.7162 43.8653 44.792 44.0947 44.0396 44.6257L35.9826 36.5687L36.3263 36.2219L51.8747 42.4419L54.3271 48.8213L47.3511 55.7973L40.9717 53.3449L34.7517 37.7965ZM46.1577 45.2005C46.7192 45.2013 47.2631 45.3968 47.6967 45.7537C48.1303 46.1105 48.4267 46.6067 48.5355 47.1576C48.6443 47.7085 48.5587 48.2801 48.2933 48.775C48.028 49.2699 47.5992 49.6574 47.0802 49.8717C46.5611 50.0859 45.9838 50.1136 45.4466 49.9499C44.9095 49.7862 44.4456 49.4414 44.1342 48.9741C43.8228 48.5069 43.683 47.9461 43.7386 47.3873C43.7943 46.8285 44.042 46.3063 44.4395 45.9096C44.8956 45.4549 45.5136 45.1999 46.1577 45.2005ZM49.8347 59.7867L48.2727 56.6627L55.1862 49.7491L58.3103 51.3111L49.8347 59.7867Z" fill="#4500D0"/>
<path d="M31.9588 54.9074C31.8393 54.7944 31.6811 54.7315 31.5167 54.7315C31.3523 54.7315 31.1942 54.7944 31.0747 54.9074L30.2812 55.7009C28.1636 52.8269 26.9954 49.3639 26.9394 45.7945C26.8834 42.2251 27.9424 38.7271 29.9688 35.7881C30.5758 36.1222 31.2749 36.2505 31.961 36.1538C32.6472 36.0572 33.2836 35.7408 33.7748 35.252C34.266 34.7633 34.5856 34.1285 34.6857 33.4429C34.7858 32.7572 34.6609 32.0575 34.3299 31.4488C37.2689 29.4224 40.7669 28.3635 44.3363 28.4195C47.9057 28.4755 51.3687 29.6436 54.2427 31.7612L53.4367 32.5453C53.3205 32.6625 53.2554 32.8208 53.2555 32.9858C53.255 33.068 53.2708 33.1496 53.3019 33.2257C53.333 33.3018 53.3788 33.371 53.4367 33.4294L56.1921 36.163C56.3092 36.2794 56.4676 36.3447 56.6326 36.3447C56.7977 36.3447 56.956 36.2794 57.0731 36.163L59.8129 33.4232C59.871 33.3652 59.9171 33.2962 59.9485 33.2204C59.98 33.1445 59.9962 33.0632 59.9962 32.9811C59.9962 32.899 59.98 32.8177 59.9485 32.7419C59.9171 32.666 59.871 32.5971 59.8129 32.5391L57.0731 29.7993C56.956 29.6829 56.7977 29.6176 56.6326 29.6176C56.4676 29.6176 56.3092 29.6829 56.1921 29.7993L55.1331 30.8521C52.5229 28.888 49.4371 27.654 46.1923 27.2768C42.9476 26.8996 39.6609 27.3929 36.6699 28.7059L40.2719 25.1132C40.6803 25.3083 41.1447 25.3525 41.5826 25.2379C42.0205 25.1232 42.4036 24.8572 42.664 24.4869C42.9244 24.1167 43.0452 23.6662 43.005 23.2153C42.9649 22.7644 42.7663 22.3424 42.4445 22.024C42.1228 21.7056 41.6987 21.5115 41.2474 21.4761C40.7961 21.4407 40.3469 21.5662 39.9794 21.8305C39.6119 22.0948 39.3499 22.4807 39.2399 22.9198C39.1299 23.3589 39.179 23.8227 39.3784 24.2291L33.299 30.3179C32.6817 29.9038 31.9399 29.7169 31.2001 29.7891C30.4603 29.8613 29.7686 30.1881 29.243 30.7137C28.7174 31.2392 28.3906 31.931 28.3184 32.6707C28.2463 33.4105 28.4332 34.1524 28.8472 34.7697L22.7584 40.8491C22.3505 40.6503 21.8853 40.6026 21.4455 40.7144C21.0057 40.8262 20.6198 41.0903 20.3564 41.4598C20.0929 41.8293 19.969 42.2802 20.0066 42.7324C20.0442 43.1847 20.2409 43.6089 20.5618 43.9298C20.8827 44.2507 21.3069 44.4474 21.7592 44.485C22.2114 44.5226 22.6623 44.3987 23.0318 44.1352C23.4013 43.8718 23.6654 43.4859 23.7772 43.0461C23.889 42.6063 23.8413 42.1411 23.6425 41.7332L27.2446 38.1405C25.9302 41.1308 25.4355 44.417 25.811 47.6617C26.1865 50.9064 27.4188 53.9927 29.3814 56.6037L28.3255 57.6628C28.2091 57.7798 28.1438 57.9382 28.1438 58.1033C28.1438 58.2683 28.2091 58.4267 28.3255 58.5438L31.0653 61.2836C31.1819 61.4009 31.3403 61.4672 31.5058 61.4679C31.5882 61.4679 31.6699 61.4517 31.746 61.4201C31.8222 61.3884 31.8913 61.342 31.9494 61.2836L34.6923 58.5438C34.8087 58.4267 34.874 58.2683 34.874 58.1033C34.874 57.9382 34.8087 57.7798 34.6923 57.6628L31.9588 54.9074ZM56.6389 31.1176L58.4946 32.9733L56.6389 34.829L54.7832 32.9733L56.6389 31.1176ZM40.628 22.9264C40.7209 22.8327 40.8395 22.7688 40.9687 22.7427C41.0979 22.7166 41.232 22.7295 41.3539 22.7797C41.4758 22.8299 41.58 22.9152 41.6534 23.0247C41.7267 23.1343 41.7659 23.2631 41.7659 23.395C41.7659 23.5268 41.7267 23.6557 41.6534 23.7652C41.58 23.8748 41.4758 23.96 41.3539 24.0102C41.232 24.0605 41.0979 24.0733 40.9687 24.0472C40.8395 24.0211 40.7209 23.9572 40.628 23.8636C40.5665 23.8021 40.5176 23.729 40.4843 23.6486C40.4509 23.5682 40.4338 23.482 40.4338 23.395C40.4338 23.3079 40.4509 23.2217 40.4843 23.1413C40.5176 23.0609 40.5665 22.9879 40.628 22.9264ZM30.1312 31.6019C30.3126 31.4196 30.5283 31.2749 30.7658 31.1762C31.0033 31.0775 31.258 31.0267 31.5152 31.0267C31.7724 31.0267 32.027 31.0775 32.2645 31.1762C32.502 31.2749 32.7177 31.4196 32.8991 31.6019C33.1734 31.8757 33.3602 32.2247 33.4361 32.6047C33.5119 32.9848 33.4733 33.3788 33.3251 33.7369C33.177 34.095 32.9259 34.4011 32.6037 34.6165C32.2815 34.8319 31.9027 34.9468 31.5152 34.9468C31.1276 34.9468 30.7488 34.8319 30.4266 34.6165C30.1044 34.4011 29.8533 34.095 29.7052 33.7369C29.557 33.3788 29.5184 32.9848 29.5942 32.6047C29.6701 32.2247 29.8569 31.8757 30.1312 31.6019ZM22.396 43.0359C22.2685 43.1423 22.1057 43.1971 21.9398 43.1896C21.7739 43.1821 21.6168 43.1128 21.4993 42.9954C21.3819 42.878 21.3126 42.7208 21.3051 42.5549C21.2976 42.389 21.3524 42.2263 21.4588 42.0987C21.5838 41.9758 21.7521 41.907 21.9274 41.907C22.1027 41.907 22.271 41.9758 22.396 42.0987C22.4576 42.1602 22.5065 42.2333 22.5398 42.3137C22.5731 42.3941 22.5903 42.4803 22.5903 42.5673C22.5903 42.6544 22.5731 42.7405 22.5398 42.821C22.5065 42.9014 22.4576 42.9744 22.396 43.0359ZM31.5152 59.9465L29.6595 58.0908L31.5152 56.2351L33.3709 58.0908L31.5152 59.9465Z" fill="#4500D0"/>
</svg>
