<svg width="80" height="80" viewBox="0 0 80 80" fill="none" xmlns="http://www.w3.org/2000/svg">
<rect x="0.5" y="0.5" width="79" height="79" rx="39.5" fill="#D1F5E4"/>
<rect x="0.5" y="0.5" width="79" height="79" rx="39.5" stroke="#00BC65" stroke-dasharray="3 2"/>
<path d="M34.888 50.5695C34.7168 50.5695 34.5442 50.5106 34.4035 50.3907L29.56 46.2665C29.3929 46.1241 29.2969 45.9161 29.2969 45.6964C29.2969 45.4771 29.3934 45.2691 29.56 45.1267L34.4035 41.0024C34.718 40.7343 35.1904 40.7723 35.4586 41.0868C35.7263 41.4017 35.6887 41.8741 35.3738 42.1419L31.1998 45.6964L35.3738 49.2509C35.6887 49.519 35.7263 49.9914 35.4586 50.3059C35.3103 50.4801 35.0998 50.5695 34.888 50.5695Z" fill="#00BC65"/>
<path d="M44.4491 50.5695C44.2373 50.5695 44.0268 50.4801 43.8789 50.3059C43.6108 49.9914 43.6488 49.519 43.9633 49.2509L48.1372 45.6964L43.9633 42.1419C43.6488 41.8741 43.6108 41.4017 43.8789 41.0868C44.1467 40.7723 44.6195 40.7343 44.9336 41.0024L49.777 45.1267C49.9441 45.2691 50.0402 45.4771 50.0402 45.6964C50.0402 45.9161 49.9441 46.1241 49.777 46.2665L44.9336 50.3907C44.7928 50.5106 44.6203 50.5695 44.4491 50.5695Z" fill="#00BC65"/>
<path d="M37.9538 53.6628C37.9024 53.6628 37.8506 53.6574 37.7984 53.6465C37.3941 53.5613 37.1351 53.1641 37.2203 52.7598L40.2389 38.4278C40.3241 38.0235 40.7209 37.7645 41.1257 37.8497C41.53 37.9349 41.789 38.3317 41.7038 38.7364L38.6851 53.0685C38.6108 53.421 38.3 53.6628 37.9538 53.6628Z" fill="#00BC65"/>
<path d="M57.3116 61.4702H22.0256C19.2547 61.4702 17 59.216 17 56.4446V26.4958C17 23.7249 19.2547 21.4702 22.0256 21.4702H57.3116C60.0825 21.4702 62.3372 23.7249 62.3372 26.4958V56.4446C62.3372 59.216 60.0825 61.4702 57.3116 61.4702ZM22.0256 22.9672C20.08 22.9672 18.497 24.5502 18.497 26.4958V56.4446C18.497 58.3902 20.08 59.9732 22.0256 59.9732H57.3116C59.2572 59.9732 60.8402 58.3902 60.8402 56.4446V26.4958C60.8402 24.5502 59.2572 22.9672 57.3116 22.9672H22.0256Z" fill="#00BC65"/>
<path d="M61.5887 33.4555H17.7485C17.335 33.4555 17 33.1205 17 32.707C17 32.2939 17.335 31.9585 17.7485 31.9585H61.5887C62.0022 31.9585 62.3372 32.2939 62.3372 32.707C62.3372 33.1205 62.0022 33.4555 61.5887 33.4555Z" fill="#00BC65"/>
<path d="M29.7886 29.8736C28.4829 29.8736 27.4199 28.8106 27.4199 27.5049C27.4199 26.1988 28.4829 25.1362 29.7886 25.1362C31.0947 25.1362 32.1573 26.1988 32.1573 27.5049C32.1573 28.8106 31.0947 29.8736 29.7886 29.8736ZM29.7886 26.6332C29.3083 26.6332 28.9169 27.0242 28.9169 27.5049C28.9169 27.9857 29.3083 28.3766 29.7886 28.3766C30.2694 28.3766 30.6603 27.9857 30.6603 27.5049C30.6603 27.0242 30.2694 26.6332 29.7886 26.6332Z" fill="#00BC65"/>
<path d="M22.5113 29.8502C21.2052 29.8502 20.1426 28.7876 20.1426 27.4815C20.1426 26.1754 21.2052 25.1128 22.5113 25.1128C23.8174 25.1128 24.88 26.1754 24.88 27.4815C24.88 28.7876 23.8174 29.8502 22.5113 29.8502ZM22.5113 26.6098C22.0309 26.6098 21.6396 27.0011 21.6396 27.4815C21.6396 27.9622 22.0309 28.3532 22.5113 28.3532C22.992 28.3532 23.383 27.9622 23.383 27.4815C23.383 27.0011 22.992 26.6098 22.5113 26.6098Z" fill="#00BC65"/>
<path d="M37.0665 29.8966C35.7608 29.8966 34.6982 28.834 34.6982 27.5279C34.6982 26.2223 35.7608 25.1597 37.0665 25.1597C38.3726 25.1597 39.4352 26.2223 39.4352 27.5279C39.4352 28.834 38.3726 29.8966 37.0665 29.8966ZM37.0665 26.6562C36.5862 26.6562 36.1952 27.0472 36.1952 27.5279C36.1952 28.0087 36.5862 28.3996 37.0665 28.3996C37.5473 28.3996 37.9382 28.0087 37.9382 27.5279C37.9382 27.0472 37.5473 26.6562 37.0665 26.6562Z" fill="#00BC65"/>
</svg>
