<svg width="80" height="80" viewBox="0 0 80 80" fill="none" xmlns="http://www.w3.org/2000/svg">
<rect x="0.5" y="0.5" width="79" height="79" rx="39.5" fill="#FFF3D9"/>
<rect x="0.5" y="0.5" width="79" height="79" rx="39.5" stroke="#F2A700" stroke-dasharray="3 2"/>
<path d="M55.2 27.5612C55.994 27.5612 56.6364 26.9188 56.6364 26.1248C56.6364 25.3309 55.994 24.6885 55.2 24.6885C54.4061 24.6885 53.7637 25.3309 53.7637 26.1248C53.7637 26.9188 54.4122 27.5612 55.2 27.5612ZM55.2 25.7127C55.4303 25.7127 55.6182 25.9006 55.6182 26.1309C55.6182 26.3612 55.4303 26.5491 55.2 26.5491C54.9637 26.5491 54.7819 26.3673 54.7819 26.1309C54.7819 25.8945 54.9697 25.7127 55.2 25.7127Z" fill="#F2A700"/>
<path d="M56.7942 22.3672H27.2669C26.1457 22.3672 25.2305 23.2823 25.2305 24.4036V27.5126H23.2063C22.0851 27.5126 21.1699 28.4278 21.1699 29.549V55.0823C21.1699 56.2035 22.0851 57.1187 23.2063 57.1187H36.7396V60.0641C36.7396 60.3429 36.9699 60.5732 37.2487 60.5732H46.8123C47.0911 60.5732 47.3214 60.3429 47.3214 60.0641V57.1187H52.7336C53.8548 57.1187 54.7699 56.2035 54.7699 55.0823V51.9732H56.7942C57.9154 51.9732 58.8305 51.0581 58.8305 49.9369V24.4036C58.8305 23.2823 57.9154 22.3672 56.7942 22.3672ZM26.2487 24.4036C26.2487 23.8399 26.7093 23.3854 27.2669 23.3854H56.7942C57.3578 23.3854 57.8123 23.846 57.8123 24.4036V28.8702H38.4911L36.2184 26.5126C36.0426 26.3308 35.8002 26.2278 35.5517 26.2278H30.5457C30.0366 26.2278 29.6184 26.646 29.6184 27.1551V28.8702H26.2487V24.4036ZM23.2063 56.1066C22.6426 56.1066 22.1881 55.646 22.1881 55.0884V29.549C22.1881 28.9854 22.6487 28.5308 23.2063 28.5308H25.2305V49.9429C25.2305 51.0641 26.1457 51.9793 27.2669 51.9793H38.3214C38.5214 52.3672 38.6123 52.8035 38.576 53.252H37.7881C37.2063 53.252 36.7396 53.7247 36.7396 54.3005V56.1066H23.2063ZM41.5275 45.446C41.6305 45.2641 41.8184 45.149 42.0305 45.149C42.3457 45.149 42.6002 45.4035 42.6002 45.7187C42.6002 45.9247 42.4911 46.1126 42.3154 46.2157C42.1214 46.3308 41.8911 46.3187 41.6548 46.1854C41.6245 46.1672 41.5942 46.1429 41.582 46.1126C41.3881 45.8035 41.4669 45.5611 41.5275 45.446ZM41.5214 44.2278C41.1517 44.3551 40.8366 44.6035 40.6427 44.9551C40.3517 45.4763 40.3881 46.1126 40.7275 46.6581C40.8366 46.8278 40.982 46.9672 41.1578 47.0702C41.4366 47.2278 41.7396 47.3126 42.0366 47.3126C42.3154 47.3126 42.5881 47.2399 42.8305 47.1005C43.3154 46.8157 43.6184 46.2884 43.6184 45.7247C43.6184 45.0278 43.1639 44.4399 42.5396 44.2278V41.6096L47.0426 49.7369C47.0366 49.7429 47.0305 49.7551 47.0123 49.7611C45.4184 50.1732 44.376 51.6641 44.4608 53.252H39.6063C39.6972 51.6581 38.6487 50.1672 37.0245 49.7126L41.5214 41.6096V44.2278ZM46.3033 59.5551H37.7578L37.7881 54.2641H46.273C46.2911 54.2641 46.3033 54.2763 46.3033 54.2944V59.5551ZM53.7517 55.0823C53.7517 55.646 53.2911 56.1005 52.7336 56.1005H47.3214V54.2944C47.3214 53.7126 46.8487 53.246 46.273 53.246H45.4851C45.4487 52.7975 45.5457 52.3611 45.7396 51.9732H53.7517V55.0823ZM56.7942 50.9611H46.7275C46.8911 50.8702 47.0669 50.7914 47.2608 50.7429C47.582 50.6581 47.8426 50.4338 47.976 50.1308C48.1033 49.8338 48.0851 49.5005 47.9275 49.2157L42.7154 39.8278C42.582 39.5793 42.3214 39.4217 42.0366 39.4217C41.7457 39.4278 41.4851 39.5732 41.3457 39.8217L36.1275 49.2157C35.9699 49.5005 35.9578 49.8399 36.0851 50.1369C36.2123 50.4399 36.473 50.6581 36.7942 50.7429C36.9881 50.7914 37.1578 50.8702 37.3275 50.9611H27.2669C26.7033 50.9611 26.2487 50.5005 26.2487 49.9429V29.8884H29.7033C30.2124 29.8884 30.6305 29.4702 30.6305 28.9611V27.246H35.5093L37.782 29.6036C37.9578 29.7854 38.2002 29.8884 38.4487 29.8884H57.8123V49.9369C57.8123 50.5005 57.3578 50.9611 56.7942 50.9611Z" fill="#F2A700"/>
<path d="M51.7337 27.5612C52.5277 27.5612 53.1701 26.9188 53.1701 26.1248C53.1701 25.3309 52.5277 24.6885 51.7337 24.6885C50.9398 24.6885 50.2974 25.3309 50.2974 26.1248C50.2974 26.9188 50.9398 27.5612 51.7337 27.5612ZM51.7337 25.7127C51.964 25.7127 52.1519 25.9006 52.1519 26.1309C52.1519 26.3612 51.964 26.5491 51.7337 26.5491C51.4974 26.5491 51.3155 26.3673 51.3155 26.1309C51.3155 25.8945 51.5034 25.7127 51.7337 25.7127Z" fill="#F2A700"/>
<path d="M48.2611 27.5612C49.055 27.5612 49.6974 26.9188 49.6974 26.1248C49.6974 25.3309 49.055 24.6885 48.2611 24.6885C47.4671 24.6885 46.8247 25.3309 46.8247 26.1248C46.8247 26.9188 47.4671 27.5612 48.2611 27.5612ZM48.2611 25.7127C48.4914 25.7127 48.6793 25.9006 48.6793 26.1309C48.6793 26.3612 48.4914 26.5491 48.2611 26.5491C48.0247 26.5491 47.8429 26.3673 47.8429 26.1309C47.8429 25.8945 48.0308 25.7127 48.2611 25.7127Z" fill="#F2A700"/>
<path d="M51.8424 34.3245C51.5455 34.6215 51.3576 34.9972 51.2849 35.3972H44.1636V34.5972C44.1636 34.0518 43.7212 33.6094 43.1758 33.6094H40.8788C40.3333 33.6094 39.8909 34.0518 39.8909 34.5972V35.3972H32.7758C32.7091 35.0033 32.5212 34.6275 32.2182 34.3185C31.4485 33.5609 30.1333 33.573 29.3818 34.3245C29 34.7063 28.7939 35.2094 28.7939 35.7427C28.7939 36.2821 29.0061 36.7912 29.3818 37.1609C29.7636 37.5548 30.2727 37.7548 30.8 37.7548C31.1333 37.7548 31.4727 37.676 31.7939 37.5124C32.1394 37.3366 32.4242 37.0457 32.5939 36.6881C32.6364 36.5972 32.6727 36.5063 32.703 36.4154H37.6424C34.9576 37.7245 32.9333 40.1851 32.2303 43.1548H31.4424C30.897 43.1548 30.4545 43.5972 30.4545 44.1427V46.4397C30.4545 46.9851 30.897 47.4275 31.4424 47.4275H33.7394C34.2849 47.4275 34.7273 46.9851 34.7273 46.4397V44.1427C34.7273 43.5972 34.2849 43.1548 33.7394 43.1548H33.2788C34.1273 39.9548 36.6909 37.4457 39.9091 36.67V36.8881C39.9091 37.4336 40.3515 37.876 40.897 37.876H43.1939C43.7394 37.876 44.1818 37.4336 44.1818 36.8881V36.67C47.3939 37.4457 49.9576 39.9548 50.8121 43.1548H50.3939C49.8485 43.1548 49.4061 43.5972 49.4061 44.1427V46.4397C49.4061 46.9851 49.8485 47.4275 50.3939 47.4275H52.6909C53.2364 47.4275 53.6788 46.9851 53.6788 46.4397V44.1427C53.6788 43.5972 53.2364 43.1548 52.6909 43.1548H51.8606C51.1515 40.1851 49.1273 37.7185 46.4485 36.4154H51.4C51.497 36.6942 51.6546 36.9488 51.8667 37.1609C52.2485 37.5548 52.7576 37.7548 53.2849 37.7548C53.6182 37.7548 53.9576 37.676 54.2788 37.5124C54.6242 37.3366 54.9091 37.0457 55.0788 36.6881C55.4727 35.8578 55.3333 34.9548 54.7091 34.3185C53.9152 33.5669 52.6 33.573 51.8424 34.3245ZM31.6667 36.2578C31.5939 36.4033 31.4727 36.5306 31.3273 36.6033C30.8 36.87 30.3455 36.7003 30.097 36.4397C29.9091 36.2578 29.8061 36.0094 29.8061 35.7427C29.8061 35.4821 29.9091 35.2336 30.097 35.0397C30.2848 34.8518 30.5333 34.7488 30.8 34.7488C31.0606 34.7488 31.3152 34.8518 31.497 35.0336C31.8121 35.3609 31.8727 35.8154 31.6667 36.2578ZM33.7273 46.4094L31.4606 46.4397L31.4303 44.173H33.697L33.7273 46.4094ZM52.6727 46.4094L50.4061 46.4397L50.3758 44.173H52.6424L52.6727 46.4094ZM40.9152 36.8942L40.903 36.1306C40.9152 36.076 40.9152 36.0215 40.9091 35.9609V35.9548C40.9091 35.9366 40.9212 35.9245 40.9212 35.9063C40.9212 35.876 40.9091 35.8518 40.903 35.8275L40.8849 34.6336H43.1515L43.1697 35.8275C43.1636 35.8578 43.1515 35.8821 43.1515 35.9124C43.1515 35.9306 43.1576 35.9427 43.1636 35.9609V35.9669C43.1515 36.0457 43.1576 36.1185 43.1758 36.1851L43.1879 36.87L40.9152 36.8942ZM54.1333 36.2578C54.0606 36.4033 53.9394 36.5306 53.7939 36.6033C53.2667 36.87 52.8121 36.7003 52.5636 36.4397C52.3758 36.2578 52.2727 36.0094 52.2727 35.7427C52.2727 35.4821 52.3758 35.2336 52.5636 35.0397C52.7515 34.8518 53 34.7488 53.2667 34.7488C53.5273 34.7488 53.7818 34.8518 53.9636 35.0336C54.2788 35.3609 54.3394 35.8154 54.1333 36.2578Z" fill="#F2A700"/>
</svg>
