<?xml version="1.0" standalone="no"?>
<svg xmlns:xlink="http://www.w3.org/1999/xlink" id="wave" style="transform:rotate(0deg); transition: 0.3s" viewBox="0 0 1440 490" version="1.1" xmlns="http://www.w3.org/2000/svg"><defs><linearGradient id="sw-gradient-0" x1="0" x2="0" y1="1" y2="0"><stop stop-color="rgba(243, 106, 62, 1)" offset="0%"/><stop stop-color="rgba(255, 179, 11, 1)" offset="100%"/></linearGradient></defs><path style="transform:translate(0, 0px); opacity:1" fill="url(#sw-gradient-0)" d="M0,392L10,383.8C20,376,40,359,60,302.2C80,245,100,147,120,147C140,147,160,245,180,269.5C200,294,220,245,240,245C260,245,280,294,300,318.5C320,343,340,343,360,351.2C380,359,400,376,420,367.5C440,359,460,327,480,334.8C500,343,520,392,540,375.7C560,359,580,278,600,277.7C620,278,640,359,660,375.7C680,392,700,343,720,326.7C740,310,760,327,780,310.3C800,294,820,245,840,261.3C860,278,880,359,900,367.5C920,376,940,310,960,269.5C980,229,1000,212,1020,236.8C1040,261,1060,327,1080,302.2C1100,278,1120,163,1140,122.5C1160,82,1180,114,1200,130.7C1220,147,1240,147,1260,163.3C1280,180,1300,212,1320,261.3C1340,310,1360,376,1380,375.7C1400,376,1420,310,1430,277.7L1440,245L1440,490L1430,490C1420,490,1400,490,1380,490C1360,490,1340,490,1320,490C1300,490,1280,490,1260,490C1240,490,1220,490,1200,490C1180,490,1160,490,1140,490C1120,490,1100,490,1080,490C1060,490,1040,490,1020,490C1000,490,980,490,960,490C940,490,920,490,900,490C880,490,860,490,840,490C820,490,800,490,780,490C760,490,740,490,720,490C700,490,680,490,660,490C640,490,620,490,600,490C580,490,560,490,540,490C520,490,500,490,480,490C460,490,440,490,420,490C400,490,380,490,360,490C340,490,320,490,300,490C280,490,260,490,240,490C220,490,200,490,180,490C160,490,140,490,120,490C100,490,80,490,60,490C40,490,20,490,10,490L0,490Z"/><defs><linearGradient id="sw-gradient-1" x1="0" x2="0" y1="1" y2="0"><stop stop-color="rgba(243, 106, 62, 1)" offset="0%"/><stop stop-color="rgba(255, 179, 11, 1)" offset="100%"/></linearGradient></defs><path style="transform:translate(0, 50px); opacity:0.9" fill="url(#sw-gradient-1)" d="M0,49L10,106.2C20,163,40,278,60,343C80,408,100,425,120,359.3C140,294,160,147,180,98C200,49,220,98,240,130.7C260,163,280,180,300,171.5C320,163,340,131,360,98C380,65,400,33,420,49C440,65,460,131,480,196C500,261,520,327,540,351.2C560,376,580,359,600,359.3C620,359,640,376,660,367.5C680,359,700,327,720,326.7C740,327,760,359,780,334.8C800,310,820,229,840,228.7C860,229,880,310,900,326.7C920,343,940,294,960,236.8C980,180,1000,114,1020,106.2C1040,98,1060,147,1080,196C1100,245,1120,294,1140,318.5C1160,343,1180,343,1200,334.8C1220,327,1240,310,1260,302.2C1280,294,1300,294,1320,302.2C1340,310,1360,327,1380,310.3C1400,294,1420,245,1430,220.5L1440,196L1440,490L1430,490C1420,490,1400,490,1380,490C1360,490,1340,490,1320,490C1300,490,1280,490,1260,490C1240,490,1220,490,1200,490C1180,490,1160,490,1140,490C1120,490,1100,490,1080,490C1060,490,1040,490,1020,490C1000,490,980,490,960,490C940,490,920,490,900,490C880,490,860,490,840,490C820,490,800,490,780,490C760,490,740,490,720,490C700,490,680,490,660,490C640,490,620,490,600,490C580,490,560,490,540,490C520,490,500,490,480,490C460,490,440,490,420,490C400,490,380,490,360,490C340,490,320,490,300,490C280,490,260,490,240,490C220,490,200,490,180,490C160,490,140,490,120,490C100,490,80,490,60,490C40,490,20,490,10,490L0,490Z"/><defs><linearGradient id="sw-gradient-2" x1="0" x2="0" y1="1" y2="0"><stop stop-color="rgba(243, 106, 62, 1)" offset="0%"/><stop stop-color="rgba(255, 179, 11, 1)" offset="100%"/></linearGradient></defs><path style="transform:translate(0, 100px); opacity:0.8" fill="url(#sw-gradient-2)" d="M0,343L10,351.2C20,359,40,376,60,351.2C80,327,100,261,120,204.2C140,147,160,98,180,98C200,98,220,147,240,147C260,147,280,98,300,65.3C320,33,340,16,360,8.2C380,0,400,0,420,49C440,98,460,196,480,212.3C500,229,520,163,540,114.3C560,65,580,33,600,65.3C620,98,640,196,660,253.2C680,310,700,327,720,294C740,261,760,180,780,138.8C800,98,820,98,840,81.7C860,65,880,33,900,24.5C920,16,940,33,960,106.2C980,180,1000,310,1020,318.5C1040,327,1060,212,1080,163.3C1100,114,1120,131,1140,114.3C1160,98,1180,49,1200,65.3C1220,82,1240,163,1260,236.8C1280,310,1300,376,1320,375.7C1340,376,1360,310,1380,310.3C1400,310,1420,376,1430,408.3L1440,441L1440,490L1430,490C1420,490,1400,490,1380,490C1360,490,1340,490,1320,490C1300,490,1280,490,1260,490C1240,490,1220,490,1200,490C1180,490,1160,490,1140,490C1120,490,1100,490,1080,490C1060,490,1040,490,1020,490C1000,490,980,490,960,490C940,490,920,490,900,490C880,490,860,490,840,490C820,490,800,490,780,490C760,490,740,490,720,490C700,490,680,490,660,490C640,490,620,490,600,490C580,490,560,490,540,490C520,490,500,490,480,490C460,490,440,490,420,490C400,490,380,490,360,490C340,490,320,490,300,490C280,490,260,490,240,490C220,490,200,490,180,490C160,490,140,490,120,490C100,490,80,490,60,490C40,490,20,490,10,490L0,490Z"/><defs><linearGradient id="sw-gradient-3" x1="0" x2="0" y1="1" y2="0"><stop stop-color="rgba(243, 106, 62, 1)" offset="0%"/><stop stop-color="rgba(255, 179, 11, 1)" offset="100%"/></linearGradient></defs><path style="transform:translate(0, 150px); opacity:0.7" fill="url(#sw-gradient-3)" d="M0,245L10,277.7C20,310,40,376,60,383.8C80,392,100,343,120,269.5C140,196,160,98,180,106.2C200,114,220,229,240,253.2C260,278,280,212,300,187.8C320,163,340,180,360,187.8C380,196,400,196,420,171.5C440,147,460,98,480,81.7C500,65,520,82,540,89.8C560,98,580,98,600,138.8C620,180,640,261,660,294C680,327,700,310,720,261.3C740,212,760,131,780,130.7C800,131,820,212,840,204.2C860,196,880,98,900,106.2C920,114,940,229,960,261.3C980,294,1000,245,1020,204.2C1040,163,1060,131,1080,98C1100,65,1120,33,1140,65.3C1160,98,1180,196,1200,269.5C1220,343,1240,392,1260,383.8C1280,376,1300,310,1320,245C1340,180,1360,114,1380,89.8C1400,65,1420,82,1430,89.8L1440,98L1440,490L1430,490C1420,490,1400,490,1380,490C1360,490,1340,490,1320,490C1300,490,1280,490,1260,490C1240,490,1220,490,1200,490C1180,490,1160,490,1140,490C1120,490,1100,490,1080,490C1060,490,1040,490,1020,490C1000,490,980,490,960,490C940,490,920,490,900,490C880,490,860,490,840,490C820,490,800,490,780,490C760,490,740,490,720,490C700,490,680,490,660,490C640,490,620,490,600,490C580,490,560,490,540,490C520,490,500,490,480,490C460,490,440,490,420,490C400,490,380,490,360,490C340,490,320,490,300,490C280,490,260,490,240,490C220,490,200,490,180,490C160,490,140,490,120,490C100,490,80,490,60,490C40,490,20,490,10,490L0,490Z"/></svg>